<?xml version="1.0" encoding="UTF-8" standalone="no"?>
<!DOCTYPE svg PUBLIC "-//W3C//DTD SVG 1.1//EN"
 "http://www.w3.org/Graphics/SVG/1.1/DTD/svg11.dtd">
<!-- Generated by graphviz version 2.43.0 (0)
 -->
<!-- Title: data_flow Pages: 1 -->
<svg width="200pt" height="188pt"
 viewBox="0.00 0.00 199.50 188.00" xmlns="http://www.w3.org/2000/svg" xmlns:xlink="http://www.w3.org/1999/xlink">
<g id="graph0" class="graph" transform="scale(1 1) rotate(0) translate(4 184)">
<title>data_flow</title>
<polygon fill="white" stroke="transparent" points="-4,4 -4,-184 195.5,-184 195.5,4 -4,4"/>
<!-- External -->
<g id="node1" class="node">
<title>External</title>
<polygon fill="darkgray" stroke="darkgray" points="78,-180 0,-180 0,-144 78,-144 78,-180"/>
<text text-anchor="middle" x="39" y="-158.3" font-family="Times,serif" font-size="14.00">External</text>
</g>
<!-- Laptop -->
<g id="node2" class="node">
<title>Laptop</title>
<polygon fill="skyblue" stroke="skyblue" points="124,-108 58,-108 58,-72 124,-72 124,-108"/>
<text text-anchor="middle" x="91" y="-86.3" font-family="Times,serif" font-size="14.00">Laptop</text>
</g>
<!-- External&#45;&gt;Laptop -->
<g id="edge1" class="edge">
<title>External&#45;&gt;Laptop</title>
<path fill="none" stroke="black" d="M51.85,-143.7C58.03,-135.39 65.54,-125.28 72.32,-116.14"/>
<polygon fill="black" stroke="black" points="75.14,-118.22 78.29,-108.1 69.52,-114.04 75.14,-118.22"/>
</g>
<!-- Supercomputer -->
<g id="node4" class="node">
<title>Supercomputer</title>
<polygon fill="darkblue" stroke="darkblue" points="155,-36 27,-36 27,0 155,0 155,-36"/>
<text text-anchor="middle" x="91" y="-14.3" font-family="Times,serif" font-size="14.00" fill="white">Supercomputer</text>
</g>
<!-- Laptop&#45;&gt;Supercomputer -->
<g id="edge3" class="edge">
<title>Laptop&#45;&gt;Supercomputer</title>
<path fill="none" stroke="black" d="M91,-71.7C91,-63.98 91,-54.71 91,-46.11"/>
<polygon fill="black" stroke="black" points="94.5,-46.1 91,-36.1 87.5,-46.1 94.5,-46.1"/>
</g>
<!-- Lab Server -->
<g id="node3" class="node">
<title>Lab Server</title>
<polygon fill="blue" stroke="blue" points="191.5,-180 96.5,-180 96.5,-144 191.5,-144 191.5,-180"/>
<text text-anchor="middle" x="144" y="-158.3" font-family="Times,serif" font-size="14.00" fill="white">Lab Server</text>
</g>
<!-- Lab Server&#45;&gt;Laptop -->
<g id="edge2" class="edge">
<title>Lab Server&#45;&gt;Laptop</title>
<path fill="none" stroke="black" d="M130.9,-143.7C124.61,-135.39 116.95,-125.28 110.04,-116.14"/>
<polygon fill="black" stroke="black" points="112.78,-113.96 103.95,-108.1 107.2,-118.19 112.78,-113.96"/>
</g>
</g>
</svg>
