<?xml version="1.0" encoding="UTF-8" standalone="no"?>
<!DOCTYPE svg PUBLIC "-//W3C//DTD SVG 1.1//EN"
 "http://www.w3.org/Graphics/SVG/1.1/DTD/svg11.dtd">
<!-- Generated by graphviz version 2.43.0 (0)
 -->
<!-- Title: code_flow Pages: 1 -->
<svg width="250pt" height="188pt"
 viewBox="0.00 0.00 249.50 188.00" xmlns="http://www.w3.org/2000/svg" xmlns:xlink="http://www.w3.org/1999/xlink">
<g id="graph0" class="graph" transform="scale(1 1) rotate(0) translate(4 184)">
<title>code_flow</title>
<polygon fill="white" stroke="transparent" points="-4,4 -4,-184 245.5,-184 245.5,4 -4,4"/>
<!-- GitHub -->
<g id="node1" class="node">
<title>GitHub</title>
<polygon fill="darkgray" stroke="darkgray" points="147.5,-108 79.5,-108 79.5,-72 147.5,-72 147.5,-108"/>
<text text-anchor="middle" x="113.5" y="-86.3" font-family="Times,serif" font-size="14.00">GitHub</text>
</g>
<!-- Lab Server -->
<g id="node3" class="node">
<title>Lab Server</title>
<polygon fill="blue" stroke="blue" points="95,-36 0,-36 0,0 95,0 95,-36"/>
<text text-anchor="middle" x="47.5" y="-14.3" font-family="Times,serif" font-size="14.00" fill="white">Lab Server</text>
</g>
<!-- GitHub&#45;&gt;Lab Server -->
<g id="edge4" class="edge">
<title>GitHub&#45;&gt;Lab Server</title>
<path fill="none" stroke="black" stroke-dasharray="1,5" d="M97.19,-71.7C89.19,-63.22 79.43,-52.86 70.68,-43.58"/>
<polygon fill="black" stroke="black" points="73.03,-40.98 63.63,-36.1 67.94,-45.78 73.03,-40.98"/>
</g>
<!-- Supercomputer -->
<g id="node4" class="node">
<title>Supercomputer</title>
<polygon fill="darkblue" stroke="darkblue" points="241.5,-36 113.5,-36 113.5,0 241.5,0 241.5,-36"/>
<text text-anchor="middle" x="177.5" y="-14.3" font-family="Times,serif" font-size="14.00" fill="white">Supercomputer</text>
</g>
<!-- GitHub&#45;&gt;Supercomputer -->
<g id="edge5" class="edge">
<title>GitHub&#45;&gt;Supercomputer</title>
<path fill="none" stroke="black" stroke-dasharray="1,5" d="M129.32,-71.7C137.07,-63.22 146.54,-52.86 155.02,-43.58"/>
<polygon fill="black" stroke="black" points="157.7,-45.85 161.86,-36.1 152.53,-41.12 157.7,-45.85"/>
</g>
<!-- Laptop -->
<g id="node2" class="node">
<title>Laptop</title>
<polygon fill="skyblue" stroke="skyblue" points="146.5,-180 80.5,-180 80.5,-144 146.5,-144 146.5,-180"/>
<text text-anchor="middle" x="113.5" y="-158.3" font-family="Times,serif" font-size="14.00">Laptop</text>
</g>
<!-- Laptop&#45;&gt;GitHub -->
<g id="edge1" class="edge">
<title>Laptop&#45;&gt;GitHub</title>
<path fill="none" stroke="black" d="M113.5,-143.7C113.5,-135.98 113.5,-126.71 113.5,-118.11"/>
<polygon fill="black" stroke="black" points="117,-118.1 113.5,-108.1 110,-118.1 117,-118.1"/>
</g>
<!-- Laptop&#45;&gt;Lab Server -->
<g id="edge2" class="edge">
<title>Laptop&#45;&gt;Lab Server</title>
<path fill="none" stroke="black" d="M96.27,-143.72C87.41,-133.96 77.12,-121.12 70.5,-108 60.65,-88.47 54.75,-64.33 51.4,-46.12"/>
<polygon fill="black" stroke="black" points="54.83,-45.44 49.71,-36.17 47.93,-46.61 54.83,-45.44"/>
</g>
<!-- Laptop&#45;&gt;Supercomputer -->
<g id="edge3" class="edge">
<title>Laptop&#45;&gt;Supercomputer</title>
<path fill="none" stroke="black" d="M130.84,-143.78C139.73,-134.03 150.02,-121.19 156.5,-108 166.1,-88.47 171.44,-64.33 174.33,-46.12"/>
<polygon fill="black" stroke="black" points="177.8,-46.56 175.76,-36.17 170.87,-45.57 177.8,-46.56"/>
</g>
</g>
</svg>
