<?xml version="1.0" encoding="UTF-8" standalone="no"?>
<!DOCTYPE svg PUBLIC "-//W3C//DTD SVG 1.1//EN"
 "http://www.w3.org/Graphics/SVG/1.1/DTD/svg11.dtd">
<!-- Generated by graphviz version 2.43.0 (0)
 -->
<!-- Title: results_flow Pages: 1 -->
<svg width="136pt" height="116pt"
 viewBox="0.00 0.00 136.00 116.00" xmlns="http://www.w3.org/2000/svg" xmlns:xlink="http://www.w3.org/1999/xlink">
<g id="graph0" class="graph" transform="scale(1 1) rotate(0) translate(4 112)">
<title>results_flow</title>
<polygon fill="white" stroke="transparent" points="-4,4 -4,-112 132,-112 132,4 -4,4"/>
<!-- Laptop -->
<g id="node1" class="node">
<title>Laptop</title>
<polygon fill="skyblue" stroke="skyblue" points="97,-36 31,-36 31,0 97,0 97,-36"/>
<text text-anchor="middle" x="64" y="-14.3" font-family="Times,serif" font-size="14.00">Laptop</text>
</g>
<!-- Laptop&#45;&gt;Laptop -->
<g id="edge1" class="edge">
<title>Laptop&#45;&gt;Laptop</title>
<path fill="none" stroke="black" d="M97.35,-31.47C107.28,-31.07 115,-26.58 115,-18 115,-12.64 111.98,-8.87 107.3,-6.71"/>
<polygon fill="black" stroke="black" points="107.87,-3.25 97.35,-4.53 106.37,-10.09 107.87,-3.25"/>
</g>
<!-- Supercomputer -->
<g id="node2" class="node">
<title>Supercomputer</title>
<polygon fill="darkblue" stroke="darkblue" points="128,-108 0,-108 0,-72 128,-72 128,-108"/>
<text text-anchor="middle" x="64" y="-86.3" font-family="Times,serif" font-size="14.00" fill="white">Supercomputer</text>
</g>
<!-- Supercomputer&#45;&gt;Laptop -->
<g id="edge2" class="edge">
<title>Supercomputer&#45;&gt;Laptop</title>
<path fill="none" stroke="black" d="M64,-71.7C64,-63.98 64,-54.71 64,-46.11"/>
<polygon fill="black" stroke="black" points="67.5,-46.1 64,-36.1 60.5,-46.1 67.5,-46.1"/>
</g>
</g>
</svg>
